<svg width="228" height="228" viewBox="0 0 228 228" fill="none" xmlns="http://www.w3.org/2000/svg">
<g clip-path="url(#clip0_101_3)">
<path d="M128.25 74.4562V61.943C115.692 45.7781 107.276 26.6297 104.159 6.18984C103.223 0.178122 95.6977 -2.18203 91.7789 2.49375C82.3828 13.582 74.9906 26.5852 70.0031 41.0133C85.2328 58.0687 105.628 69.7805 128.25 74.4562ZM178.125 28.5C158.442 28.5 142.5 44.4867 142.5 64.1695V90.6211C96.0094 87.8602 56.5547 59.2266 38.7422 18.6141C36.293 13.0477 28.4109 12.7359 25.8281 18.2133C18.4359 33.8437 14.25 51.3 14.25 69.7359C14.25 101.264 29.4351 130.699 52.1461 152.52C58.0242 158.175 63.7687 162.851 69.4687 167.126L5.38827 183.157C0.623427 184.359 -1.51407 189.881 1.1578 194.023C8.90624 206.002 28.0547 226.308 69.3797 228C72.9422 228.134 76.5047 226.842 79.2211 224.482L108.255 199.5H142.5C181.866 199.5 213.75 167.66 213.75 128.295V57L228 28.5H178.125ZM178.125 71.2945C174.206 71.2945 171 68.0883 171 64.1695C171 60.2508 174.206 57.0445 178.125 57.0445C182.044 57.0445 185.25 60.2508 185.25 64.1695C185.25 68.0883 182.044 71.2945 178.125 71.2945Z" fill="#3C3C3C"/>
</g>
<defs>
<clipPath id="clip0_101_3">
<rect width="228" height="228" fill="white"/>
</clipPath>
</defs>
</svg>
